PathFileType	4	(X/Y/Z)	/Users/itak/Documents/Research/Walk-IL/dataset/trc/00173_00008.trc
DataRate	CameraRate	NumFrames	NumMarkers	Units	OrigDataRate	OrigDataStartFrame	OrigNumFrames
100.000000	100.000000	4	53	mm	100.000000	231	617
Frame#	Time	RPSI			LPSI			L3			STRN			T10			C7			CLAV			RBAK			LBAK			LSHO			LUPA			LAEL			LAOL			LWTS			LWPS			LFRA			LIFD			LHPS			LHTS			RSHO			RUPA			RAEL			RAOL			RWTS			RWPS			RFRA			RIFD			RHTS			RHPS			RBHD			LFHD			RFHD			LBHD			LHIP			RHIP			RASI			LASI			LKNE			LTHI			LANK			LTIP			LTOE			LMT1			LMT5			LHEE			RKNE			RTHI			RANK			RTIP			RTOE			RMT1			RMT5			RHEE			
		X1	Y1	Z1	X2	Y2	Z2	X3	Y3	Z3	X4	Y4	Z4	X5	Y5	Z5	X6	Y6	Z6	X7	Y7	Z7	X8	Y8	Z8	X9	Y9	Z9	X10	Y10	Z10	X11	Y11	Z11	X12	Y12	Z12	X13	Y13	Z13	X14	Y14	Z14	X15	Y15	Z15	X16	Y16	Z16	X17	Y17	Z17	X18	Y18	Z18	X19	Y19	Z19	X20	Y20	Z20	X21	Y21	Z21	X22	Y22	Z22	X23	Y23	Z23	X24	Y24	Z24	X25	Y25	Z25	X26	Y26	Z26	X27	Y27	Z27	X28	Y28	Z28	X29	Y29	Z29	X30	Y30	Z30	X31	Y31	Z31	X32	Y32	Z32	X33	Y33	Z33	X34	Y34	Z34	X35	Y35	Z35	X36	Y36	Z36	X37	Y37	Z37	X38	Y38	Z38	X39	Y39	Z39	X40	Y40	Z40	X41	Y41	Z41	X42	Y42	Z42	X43	Y43	Z43	X44	Y44	Z44	X45	Y45	Z45	X46	Y46	Z46	X47	Y47	Z47	X48	Y48	Z48	X49	Y49	Z49	X50	Y50	Z50	X51	Y51	Z51	X52	Y52	Z52	X53	Y53	Z53	

232	2.31	426.8163757324219	1032.253540039062	270.7052612304688	406.6210021972656	1039.481079101562	150.763427734375	424.0255737304688	1073.486206054688	211.4701995849609	700.49951171875	1254.511962890625	162.7586669921875	408.2814636230469	1234.403564453125	201.6148681640625	495.3223571777344	1496.298706054688	176.5292816162109	683.0482177734375	1370.642578125	156.8599853515625	424.9654846191406	1327.384765625	294.6219177246094	474.6268615722656	1473.035034179688	77.69306182861328	539.375244140625	1453.778686523438	-9.490986824035645	486.9635314941406	1324.203369140625	-74.73686981201172	485.877197265625	1105.376831054688	-93.01531219482422	452.5661926269531	1089.448852539062	-12.78987884521484	632.4514770507812	894.2019653320312	-74.56266021728516	549.95751953125	857.1209106445312	-99.41916656494141	510.2449951171875	994.7426147460938	-105.9625549316406	686.4218139648438	718.5551147460938	-53.79974746704102	584.8104248046875	792.73583984375	-98.05931091308594	653.677490234375	819.2627563476562	-95.92440795898438	577.044189453125	1464.352661132812	349.1805725097656	559.2887573242188	1398.644775390625	419.6954956054688	531.7303466796875	1110.199951171875	478.9755554199219	520.349853515625	1101.992553710938	383.2648010253906	693.2244873046875	901.4188232421875	443.5800476074219	623.9440307617188	871.5673217773438	489.5379333496094	563.492431640625	1037.691772460938	492.8835144042969	735.8075561523438	721.0604248046875	409.2947082519531	733.1549682617188	812.7748413085938	446.9852905273438	662.8786010742188	793.8778686523438	480.9728698730469	567.5858154296875	1638.511474609375	254.4819183349609	720.0252685546875	1697.438598632812	110.5618057250977	734.4102172851562	1685.24267578125	238.3286743164062	543.2501831054688	1659.296875	120.422721862793	483.6774597167969	971.4095458984375	15.900146484375	592.4611206054688	976.32568359375	368.4319763183594	665.3082275390625	997.637451171875	300.4431762695312	616.4979248046875	997.5841064453125	44.7114143371582	492.3411560058594	466.422607421875	33.34719085693359	497.8602600097656	612.9888305664062	11.41059970855713	253.2701416015625	52.6550407409668	52.53593444824219	380.3601379394531	258.7714538574219	31.02678871154785	470.8056335449219	41.09015655517578	55.05870819091797	427.6101379394531	42.72536087036133	107.6322174072266	354.5284423828125	32.65721130371094	1.194706678390503	207.9498748779297	62.99121475219727	125.537223815918	766.1472778320312	521.3104248046875	348.961669921875	693.3521118164062	776.8102416992188	368.0078430175781	849.205322265625	33.30618667602539	363.3116455078125	818.6596069335938	411.4615173339844	336.9501342773438	1054.65869140625	108.73974609375	336.2489013671875	1006.022033691406	89.55928802490234	288.0850524902344	960.84716796875	52.6101188659668	397.9215393066406	799.738037109375	27.22431564331055	293.4858703613281	
233	2.32	417.2219848632812	1032.010131835938	268.4801025390625	397.1053161621094	1039.2060546875	148.6343536376953	414.5823364257812	1073.429077148438	209.2218017578125	691.5497436523438	1253.889404296875	160.4383392333984	399.2735290527344	1234.604614257812	198.7270355224609	487.0457458496094	1496.215698242188	173.5987396240234	674.5117797851562	1370.163208007812	154.4440002441406	416.0054626464844	1327.530395507812	291.5411376953125	466.537353515625	1473.03515625	74.66680908203125	531.4769287109375	1453.62890625	-12.28408813476562	479.2262878417969	1324.256591796875	-77.945068359375	478.34814453125	1105.247680664062	-96.24942779541016	444.2668151855469	1089.356079101562	-16.38924407958984	626.1663818359375	895.1395874023438	-76.02411651611328	544.2584838867188	857.3348999023438	-101.5975341796875	503.4732666015625	994.6646728515625	-108.7779769897461	681.4327392578125	720.040771484375	-54.24391555786133	579.612548828125	793.217529296875	-99.71401214599609	648.2643432617188	820.3384399414062	-96.95383453369141	568.2847290039062	1464.15087890625	346.4999694824219	549.9578247070312	1398.546142578125	416.8966979980469	520.0820922851562	1110.072998046875	475.3597717285156	509.7105407714844	1102.174194335938	379.4617614746094	681.7465209960938	901.1332397460938	441.0650329589844	611.7606201171875	871.0255737304688	485.8767395019531	551.4462890625	1037.321044921875	489.3946228027344	724.5521850585938	720.9639892578125	405.9587707519531	721.4920043945312	812.3715209960938	444.3483276367188	650.703857421875	793.2907104492188	477.2052917480469	559.1776123046875	1638.085571289062	251.4347686767578	712.3091430664062	1696.89794921875	108.1591339111328	726.0711059570312	1684.831665039062	236.0321044921875	535.493896484375	1658.727905273438	117.1967315673828	474.229248046875	971.3515625	13.68779945373535	582.4547729492188	976.0794677734375	366.5621643066406	655.4060668945312	997.6669921875	298.6673889160156	607.0562133789062	997.66259765625	42.71711349487305	486.6285095214844	466.0089721679688	33.11201095581055	490.9532775878906	612.5079345703125	10.49681663513184	252.4811859130859	50.32081985473633	53.00492477416992	377.3372497558594	256.8954772949219	31.39048004150391	470.3774108886719	41.15081787109375	55.02306747436523	427.2351989746094	42.38314056396484	107.9978103637695	354.11083984375	32.42835235595703	1.185914158821106	207.1746520996094	59.11681747436523	126.2031021118164	756.8206176757812	521.563720703125	348.0466613769531	683.228271484375	776.66845703125	366.8746032714844	846.13671875	33.50217056274414	362.3050842285156	810.2327880859375	412.2153015136719	336.4748229980469	1049.741943359375	114.4179000854492	336.0582580566406	1001.59326171875	94.36026000976562	287.6464233398438	957.4065551757812	55.31520462036133	397.26220703125	797.1519165039062	26.30958557128906	292.2887268066406	
234	2.33	407.8042907714844	1031.878173828125	266.2810363769531	387.8549194335938	1038.947631835938	146.4225158691406	405.2978515625	1073.471801757812	206.9638519287109	682.746826171875	1253.431884765625	158.2642669677734	390.4162902832031	1234.84912109375	195.9833374023438	478.8197021484375	1496.239624023438	170.8688812255859	666.0599975585938	1369.8212890625	152.1856689453125	407.18505859375	1327.732666015625	288.6471862792969	458.4708557128906	1473.10888671875	71.85282897949219	523.5994262695312	1453.566040039062	-14.87913990020752	471.5130920410156	1324.405029296875	-80.9669189453125	470.822998046875	1105.2490234375	-99.44610595703125	435.9625549316406	1089.388305664062	-19.96547698974609	619.6463012695312	896.0475463867188	-77.49302673339844	538.3121337890625	857.6373291015625	-103.8738021850586	496.622802734375	994.7235107421875	-111.6057052612305	675.9332885742188	721.4168701171875	-54.70705413818359	574.0764770507812	793.7490234375	-101.4619369506836	642.5353393554688	821.3687133789062	-97.99360656738281	559.6278686523438	1464.060546875	344.0042114257812	540.767333984375	1398.55615234375	414.2845153808594	508.55712890625	1110.070556640625	471.9284362792969	499.1651306152344	1102.501953125	375.8554992675781	670.2133178710938	900.8635864257812	438.5848388671875	599.5565185546875	870.5479736328125	482.3270263671875	539.4810791015625	1037.058837890625	486.0519104003906	713.1312255859375	720.891845703125	402.5949401855469	709.717529296875	811.9795532226562	441.6960754394531	638.4675903320312	792.7401733398438	473.4916381835938	550.848388671875	1637.877319335938	248.4930877685547	704.5598754882812	1696.452392578125	105.7041702270508	717.7958374023438	1684.610961914062	233.6771392822266	527.7083129882812	1658.279907226562	114.0766296386719	465.1523742675781	971.25537109375	11.51924610137939	572.4639892578125	976.0045776367188	364.8533630371094	645.588134765625	997.8406982421875	297.0870666503906	597.9168090820312	997.7063598632812	40.88123321533203	481.2721252441406	465.6322326660156	32.85444259643555	484.4512939453125	612.0424194335938	9.603958129882812	251.7696838378906	48.25662994384766	53.49358749389648	374.4516906738281	255.2102966308594	31.7380485534668	469.9551086425781	41.21723556518555	54.97490310668945	426.9157104492188	42.09893035888672	108.3418197631836	353.737060546875	32.28077697753906	1.247057795524597	206.5480651855469	55.62860107421875	126.931282043457	747.6177368164062	521.9215698242188	347.2132873535156	673.0096435546875	776.5150146484375	366.0798950195312	841.900634765625	33.75617218017578	360.9628601074219	801.7695922851562	412.9898376464844	336.0594482421875	1044.185791015625	118.7392196655273	336.3301086425781	996.5663452148438	98.231201171875	287.4920043945312	952.7236328125	57.39658737182617	396.6788024902344	793.661865234375	25.84164810180664	290.6005859375	
235	2.34	398.5679931640625	1031.887451171875	264.1316833496094	378.8734741210938	1038.753173828125	144.1438903808594	396.1603088378906	1073.643920898438	204.7207183837891	674.1050415039062	1253.15625	156.2402801513672	381.7116394042969	1235.176391601562	193.408203125	470.6707763671875	1496.407348632812	168.3463897705078	657.7059936523438	1369.625122070312	150.0805053710938	398.5106201171875	1328.036987304688	285.9631042480469	450.4433898925781	1473.279418945312	69.25682067871094	515.7470092773438	1453.597778320312	-17.28032875061035	463.8017578125	1324.634765625	-83.77119445800781	463.2974853515625	1105.373901367188	-102.5767593383789	427.6705932617188	1089.522827148438	-23.47970962524414	612.89306640625	896.9124755859375	-78.97645568847656	532.1110229492188	858.022216796875	-106.2532501220703	489.6878967285156	994.9102172851562	-114.4292068481445	669.9236450195312	722.65771484375	-55.24210357666016	568.197265625	794.3222045898438	-103.3275299072266	636.4777221679688	822.3408203125	-99.07394409179688	551.1119384765625	1464.091674804688	341.7030029296875	531.7611083984375	1398.669311523438	411.8663940429688	497.238037109375	1110.188598632812	468.7086486816406	488.7562866210938	1102.956420898438	372.4776000976562	658.6558227539062	900.5936279296875	436.1435852050781	587.3810424804688	870.13623046875	478.9291076660156	527.6752319335938	1036.907592773438	482.8769836425781	701.5764770507812	720.82568359375	399.2617492675781	697.8656616210938	811.5960693359375	439.0537414550781	626.2156982421875	792.228515625	469.8873901367188	542.6090698242188	1637.916748046875	245.6710205078125	696.781494140625	1696.146362304688	103.2171859741211	709.5946044921875	1684.619140625	231.2790374755859	519.8994140625	1657.990966796875	111.0829162597656	456.4716186523438	971.1842651367188	9.42127513885498	562.5062255859375	976.0851440429688	363.3346862792969	635.8751831054688	998.1265258789062	295.730224609375	589.1092529296875	997.7463989257812	39.23930740356445	476.2642517089844	465.3648071289062	32.57155990600586	478.31640625	611.6805419921875	8.741530418395996	251.1482543945312	46.50758361816406	53.96132659912109	371.7305908203125	253.7762908935547	32.0484504699707	469.5557250976562	41.28323364257812	54.91752243041992	426.6522827148438	41.87301635742188	108.6472702026367	353.4035034179688	32.20652770996094	1.368842840194702	206.0411376953125	52.61306762695312	127.662223815918	738.683837890625	522.4335327148438	346.4615783691406	662.7918701171875	776.3983154296875	365.5533142089844	836.2686157226562	34.078369140625	359.2922058105469	793.35986328125	413.8026733398438	335.6947326660156	1037.85302734375	121.5929718017578	337.1410827636719	990.81298828125	101.0570983886719	287.686279296875	946.5640869140625	58.78096389770508	396.216796875	789.0054321289062	25.88860321044922	288.4091491699219	
